# xmcd
#
# Track frame offsets:
#	150
#	15251
#	29302
#	44419
#	58982
#	74882
#	86280
#	100938
#	115863
#	129358
#	143343
#	154485
#	168264
#	182959
#	194831
#	209248
#	223529
#	238698
#
# Disc length: 3369 seconds
# Revision: 1
# Processed by: cddbd v1.5.2PL0 Copyright (c) Steve Scherf et al.
# Submitted via: dBpowerAMP V12.0
#
DISCID=0e0d2712
DTITLE=Ella Fitzgerald - What Ya Do: The Very Best Of Ella Fitzgerald
DYEAR=2006
DGENRE=Blues
TTITLE0=Someone To Watch Over Me
TTITLE1=Dream A Little Dream Of Me
TTITLE2=How Long Has This Been Going On?
TTITLE3=Looking For A Boy
TTITLE4=Maybe
TTITLE5=Flying Home
TTITLE6=Oh Lady Be Good
TTITLE7=How High the Moon?
TTITLE8=I Got It Bad (And That Ain't Good)
TTITLE9=T'Ain't What You Do (It's The Way That Cha Do It)
TTITLE10=When I Get Low I Get High
TTITLE11=My Man's Gone Now
TTITLE12=And Her Tears Flowed Like Wine
TTITLE13=I Can't Believe That You're In Love With Me
TTITLE14=I Must Have That Man
TTITLE15=Basin Street Blues
TTITLE16=The Frim Fram Sauce
TTITLE17=Black Coffee
EXTD=
EXTT0=
EXTT1=
EXTT2=
EXTT3=
EXTT4=
EXTT5=
EXTT6=
EXTT7=
EXTT8=
EXTT9=
EXTT10=
EXTT11=
EXTT12=
EXTT13=
EXTT14=
EXTT15=
EXTT16=
EXTT17=
PLAYORDER=
